G75*
%MOIN*%
%OFA0B0*%
%FSLAX24Y24*%
%IPPOS*%
%LPD*%
%AMOC8*
5,1,8,0,0,1.08239X$1,22.5*
%
%ADD10R,0.0787X0.0394*%
%ADD11R,0.0394X0.0709*%
%ADD12OC8,0.0561*%
%ADD13C,0.1306*%
%ADD14C,0.0740*%
%ADD15C,0.0160*%
%ADD16C,0.0376*%
D10*
X001475Y001638D03*
X001475Y002229D03*
X001475Y002819D03*
X001475Y003410D03*
X001475Y004001D03*
X001475Y004591D03*
X001475Y005182D03*
X001475Y005772D03*
X001475Y006363D03*
X001475Y006953D03*
X001475Y007544D03*
X001475Y008134D03*
X001475Y008725D03*
X006593Y008725D03*
X006593Y008134D03*
X006593Y007544D03*
X006593Y006953D03*
X006593Y006363D03*
X006593Y005772D03*
X006593Y005182D03*
X006593Y004591D03*
X006593Y004001D03*
X006593Y003410D03*
X006593Y002819D03*
X006593Y002229D03*
X006593Y001638D03*
D11*
X006101Y000949D03*
X005510Y000949D03*
X004920Y000949D03*
X004329Y000949D03*
X003739Y000949D03*
X003148Y000949D03*
X002558Y000949D03*
X001967Y000949D03*
D12*
X003483Y014246D03*
X003483Y015033D03*
X004467Y015033D03*
X004467Y014246D03*
D13*
X006345Y016100D03*
X001605Y016100D03*
D14*
X001975Y013225D03*
X002975Y013225D03*
X003975Y013225D03*
X004975Y013225D03*
X005975Y013225D03*
D15*
X000340Y007036D02*
X000340Y001029D01*
X000501Y001096D01*
X000699Y001096D01*
X000881Y001020D01*
X001020Y000881D01*
X001096Y000699D01*
X001096Y000501D01*
X001029Y000340D01*
X007046Y000340D01*
X006979Y000501D01*
X006979Y000699D01*
X007055Y000881D01*
X007194Y001020D01*
X007376Y001096D01*
X007574Y001096D01*
X007730Y001031D01*
X007730Y017169D01*
X007574Y017104D01*
X007376Y017104D01*
X007194Y017180D01*
X007055Y017319D01*
X006979Y017501D01*
X006979Y017699D01*
X007044Y017856D01*
X001031Y017856D01*
X001096Y017699D01*
X001096Y017501D01*
X001020Y017319D01*
X000881Y017180D01*
X000699Y017104D01*
X000501Y017104D01*
X000340Y017171D01*
X000340Y007414D01*
X000362Y007468D01*
X000405Y007510D01*
X000405Y008071D01*
X000478Y008247D01*
X000478Y008247D01*
X000612Y008382D01*
X000612Y008382D01*
X000788Y008454D01*
X000852Y008454D01*
X000841Y008480D01*
X000841Y008970D01*
X000878Y009058D01*
X000895Y009075D01*
X000862Y009107D01*
X000797Y009265D01*
X000797Y009435D01*
X000862Y009593D01*
X000982Y009713D01*
X001140Y009778D01*
X001310Y009778D01*
X001468Y009713D01*
X001588Y009593D01*
X001653Y009435D01*
X001653Y009265D01*
X001610Y009162D01*
X001916Y009162D01*
X002005Y009125D01*
X002072Y009058D01*
X002109Y008970D01*
X002109Y008584D01*
X002112Y008593D01*
X002155Y008635D01*
X002155Y008940D01*
X002112Y008982D01*
X002047Y009140D01*
X002047Y009310D01*
X002112Y009468D01*
X002232Y009588D01*
X002390Y009653D01*
X002560Y009653D01*
X002718Y009588D01*
X002838Y009468D01*
X002903Y009310D01*
X002903Y009140D01*
X002838Y008982D01*
X002795Y008940D01*
X002795Y008635D01*
X002838Y008593D01*
X002903Y008435D01*
X002903Y008265D01*
X002838Y008107D01*
X002718Y007987D01*
X002560Y007922D01*
X002390Y007922D01*
X002232Y007987D01*
X002112Y008107D01*
X002109Y008116D01*
X002109Y007890D01*
X002088Y007839D01*
X002109Y007788D01*
X002109Y007299D01*
X002088Y007249D01*
X002109Y007198D01*
X002109Y006709D01*
X002088Y006658D01*
X002109Y006607D01*
X002109Y006118D01*
X002088Y006068D01*
X002109Y006017D01*
X002109Y005528D01*
X002088Y005477D01*
X002109Y005426D01*
X002109Y004937D01*
X002088Y004886D01*
X002109Y004836D01*
X002109Y004347D01*
X002088Y004296D01*
X002109Y004245D01*
X002109Y003756D01*
X002088Y003705D01*
X002109Y003655D01*
X002109Y003165D01*
X002088Y003115D01*
X002109Y003064D01*
X002109Y002575D01*
X002098Y002549D01*
X002797Y002549D01*
X002797Y002560D01*
X002862Y002718D01*
X002982Y002838D01*
X003140Y002903D01*
X003310Y002903D01*
X003468Y002838D01*
X003588Y002718D01*
X003653Y002560D01*
X003653Y002390D01*
X003588Y002232D01*
X003468Y002112D01*
X003380Y002076D01*
X003300Y001995D01*
X003300Y001995D01*
X003092Y001909D01*
X002077Y001909D01*
X002072Y001896D01*
X002046Y001870D01*
X002049Y001859D01*
X002049Y001657D01*
X001493Y001657D01*
X001493Y001620D01*
X001493Y001262D01*
X001530Y001262D01*
X001530Y000547D01*
X001567Y000459D01*
X001634Y000392D01*
X001723Y000355D01*
X002212Y000355D01*
X002262Y000376D01*
X002313Y000355D01*
X002802Y000355D01*
X002853Y000376D01*
X002904Y000355D01*
X003393Y000355D01*
X003444Y000376D01*
X003494Y000355D01*
X003983Y000355D01*
X004034Y000376D01*
X004085Y000355D01*
X004574Y000355D01*
X004625Y000376D01*
X004675Y000355D01*
X005164Y000355D01*
X005215Y000376D01*
X005266Y000355D01*
X005755Y000355D01*
X005843Y000392D01*
X005870Y000418D01*
X005880Y000415D01*
X006083Y000415D01*
X006083Y000931D01*
X006119Y000931D01*
X006119Y000415D01*
X006322Y000415D01*
X006367Y000427D01*
X006408Y000451D01*
X006442Y000485D01*
X006466Y000526D01*
X006478Y000571D01*
X006478Y000931D01*
X006119Y000931D01*
X006119Y000968D01*
X006478Y000968D01*
X006478Y001262D01*
X006575Y001262D01*
X006575Y001620D01*
X006612Y001620D01*
X006612Y001657D01*
X007167Y001657D01*
X007167Y001859D01*
X007164Y001870D01*
X007190Y001896D01*
X007227Y001984D01*
X007227Y002474D01*
X007206Y002524D01*
X007227Y002575D01*
X007227Y003064D01*
X007206Y003115D01*
X007227Y003165D01*
X007227Y003655D01*
X007206Y003705D01*
X007227Y003756D01*
X007227Y004245D01*
X007206Y004296D01*
X007227Y004347D01*
X007227Y004836D01*
X007206Y004886D01*
X007227Y004937D01*
X007227Y005426D01*
X007206Y005477D01*
X007227Y005528D01*
X007227Y006017D01*
X007206Y006068D01*
X007227Y006118D01*
X007227Y006607D01*
X007206Y006658D01*
X007227Y006709D01*
X007227Y007198D01*
X007206Y007249D01*
X007227Y007299D01*
X007227Y007788D01*
X007206Y007839D01*
X007227Y007890D01*
X007227Y008379D01*
X007206Y008430D01*
X007227Y008480D01*
X007227Y008970D01*
X007190Y009058D01*
X007123Y009125D01*
X007035Y009162D01*
X006170Y009162D01*
X006170Y012219D01*
X006051Y012426D01*
X006051Y012426D01*
X006051Y012426D01*
X005844Y012545D01*
X005295Y012545D01*
X005295Y012697D01*
X005321Y012708D01*
X005475Y012862D01*
X005629Y012708D01*
X005854Y012615D01*
X006096Y012615D01*
X006321Y012708D01*
X006492Y012879D01*
X006585Y013104D01*
X006585Y013346D01*
X006492Y013571D01*
X006321Y013742D01*
X006096Y013835D01*
X005854Y013835D01*
X005629Y013742D01*
X005475Y013588D01*
X005321Y013742D01*
X005096Y013835D01*
X004854Y013835D01*
X004749Y013792D01*
X004988Y014030D01*
X004988Y014461D01*
X004810Y014639D01*
X004988Y014817D01*
X004988Y015249D01*
X004683Y015554D01*
X004252Y015554D01*
X003947Y015249D01*
X003947Y014817D01*
X004125Y014639D01*
X003975Y014490D01*
X003783Y014682D01*
X003943Y014842D01*
X003943Y015020D01*
X003496Y015020D01*
X003496Y015047D01*
X003469Y015047D01*
X003469Y015494D01*
X003292Y015494D01*
X003022Y015224D01*
X003022Y015047D01*
X003469Y015047D01*
X003469Y015020D01*
X003022Y015020D01*
X003022Y014842D01*
X003183Y014682D01*
X002962Y014461D01*
X002962Y014030D01*
X003201Y013792D01*
X003096Y013835D01*
X002854Y013835D01*
X002629Y013742D01*
X002475Y013588D01*
X002321Y013742D01*
X002096Y013835D01*
X001854Y013835D01*
X001629Y013742D01*
X001458Y013571D01*
X001365Y013346D01*
X001365Y013104D01*
X001458Y012879D01*
X001629Y012708D01*
X001854Y012615D01*
X002096Y012615D01*
X002321Y012708D01*
X002475Y012862D01*
X002629Y012708D01*
X002854Y012615D01*
X003096Y012615D01*
X003321Y012708D01*
X003492Y012879D01*
X003512Y012927D01*
X003555Y012867D01*
X003617Y012805D01*
X003687Y012755D01*
X003764Y012715D01*
X003846Y012689D01*
X003932Y012675D01*
X003955Y012675D01*
X003955Y013205D01*
X003995Y013205D01*
X003995Y012675D01*
X004018Y012675D01*
X004104Y012689D01*
X004186Y012715D01*
X004263Y012755D01*
X004333Y012805D01*
X004395Y012867D01*
X004438Y012927D01*
X004458Y012879D01*
X004629Y012708D01*
X004655Y012697D01*
X004655Y012231D01*
X004774Y012024D01*
X004981Y011905D01*
X005530Y011905D01*
X005530Y004510D01*
X005487Y004468D01*
X005422Y004310D01*
X005422Y004140D01*
X005487Y003982D01*
X005607Y003862D01*
X005765Y003797D01*
X005935Y003797D01*
X005959Y003807D01*
X005959Y003756D01*
X005980Y003705D01*
X005959Y003655D01*
X005959Y003216D01*
X005810Y003278D01*
X005640Y003278D01*
X005482Y003213D01*
X005362Y003093D01*
X005297Y002935D01*
X005297Y002765D01*
X005362Y002607D01*
X005482Y002487D01*
X005640Y002422D01*
X005810Y002422D01*
X005965Y002486D01*
X005959Y002474D01*
X005959Y001984D01*
X005996Y001896D01*
X006022Y001870D01*
X006019Y001859D01*
X006019Y001657D01*
X006575Y001657D01*
X006575Y001620D01*
X006019Y001620D01*
X006019Y001484D01*
X005880Y001484D01*
X005870Y001481D01*
X005843Y001507D01*
X005755Y001544D01*
X005266Y001544D01*
X005215Y001523D01*
X005164Y001544D01*
X004675Y001544D01*
X004625Y001523D01*
X004574Y001544D01*
X004085Y001544D01*
X004034Y001523D01*
X003983Y001544D01*
X003494Y001544D01*
X003444Y001523D01*
X003393Y001544D01*
X002904Y001544D01*
X002853Y001523D01*
X002802Y001544D01*
X002313Y001544D01*
X002262Y001523D01*
X002212Y001544D01*
X002049Y001544D01*
X002049Y001620D01*
X001493Y001620D01*
X001457Y001620D01*
X001457Y001262D01*
X001058Y001262D01*
X001012Y001274D01*
X000971Y001297D01*
X000937Y001331D01*
X000914Y001372D01*
X000901Y001418D01*
X000901Y001620D01*
X001457Y001620D01*
X001457Y001657D01*
X000901Y001657D01*
X000901Y001859D01*
X000904Y001870D01*
X000878Y001896D01*
X000841Y001984D01*
X000841Y002474D01*
X000862Y002524D01*
X000841Y002575D01*
X000841Y003064D01*
X000862Y003115D01*
X000841Y003165D01*
X000841Y003655D01*
X000862Y003705D01*
X000841Y003756D01*
X000841Y004245D01*
X000862Y004296D01*
X000841Y004347D01*
X000841Y004836D01*
X000862Y004886D01*
X000841Y004937D01*
X000841Y005426D01*
X000862Y005477D01*
X000841Y005528D01*
X000841Y006017D01*
X000862Y006068D01*
X000841Y006118D01*
X000841Y006607D01*
X000862Y006658D01*
X000841Y006709D01*
X000841Y006810D01*
X000810Y006797D01*
X000640Y006797D01*
X000482Y006862D01*
X000362Y006982D01*
X000340Y007036D01*
X000340Y006967D02*
X000378Y006967D01*
X000340Y006809D02*
X000612Y006809D01*
X000725Y007225D02*
X000725Y007976D01*
X000727Y007998D01*
X000731Y008021D01*
X000739Y008042D01*
X000750Y008061D01*
X000764Y008079D01*
X000780Y008095D01*
X000798Y008109D01*
X000817Y008120D01*
X000838Y008128D01*
X000861Y008132D01*
X000883Y008134D01*
X001475Y008134D01*
X001475Y008725D02*
X001445Y008727D01*
X001415Y008732D01*
X001386Y008741D01*
X001359Y008754D01*
X001333Y008769D01*
X001309Y008788D01*
X001288Y008809D01*
X001269Y008833D01*
X001254Y008859D01*
X001241Y008886D01*
X001232Y008915D01*
X001227Y008945D01*
X001225Y008975D01*
X001225Y009350D01*
X001519Y009662D02*
X005530Y009662D01*
X005530Y009820D02*
X000340Y009820D01*
X000340Y009662D02*
X000931Y009662D01*
X000825Y009503D02*
X000340Y009503D01*
X000340Y009345D02*
X000797Y009345D01*
X000830Y009186D02*
X000340Y009186D01*
X000340Y009028D02*
X000865Y009028D01*
X000841Y008869D02*
X000340Y008869D01*
X000340Y008711D02*
X000841Y008711D01*
X000841Y008552D02*
X000340Y008552D01*
X000340Y008394D02*
X000641Y008394D01*
X000473Y008235D02*
X000340Y008235D01*
X000340Y008077D02*
X000407Y008077D01*
X000405Y007918D02*
X000340Y007918D01*
X000340Y007760D02*
X000405Y007760D01*
X000405Y007601D02*
X000340Y007601D01*
X000340Y007443D02*
X000352Y007443D01*
X000340Y006650D02*
X000859Y006650D01*
X000841Y006492D02*
X000340Y006492D01*
X000340Y006333D02*
X000841Y006333D01*
X000841Y006175D02*
X000340Y006175D01*
X000340Y006016D02*
X000841Y006016D01*
X000841Y005858D02*
X000340Y005858D01*
X000340Y005699D02*
X000841Y005699D01*
X000841Y005541D02*
X000340Y005541D01*
X000340Y005382D02*
X000841Y005382D01*
X000841Y005224D02*
X000340Y005224D01*
X000340Y005065D02*
X000841Y005065D01*
X000854Y004907D02*
X000340Y004907D01*
X000340Y004748D02*
X000841Y004748D01*
X000841Y004590D02*
X000340Y004590D01*
X000340Y004431D02*
X000841Y004431D01*
X000853Y004273D02*
X000340Y004273D01*
X000340Y004114D02*
X000841Y004114D01*
X000841Y003956D02*
X000340Y003956D01*
X000340Y003797D02*
X000841Y003797D01*
X000841Y003639D02*
X000340Y003639D01*
X000340Y003480D02*
X000841Y003480D01*
X000841Y003322D02*
X000340Y003322D01*
X000340Y003163D02*
X000842Y003163D01*
X000841Y003005D02*
X000340Y003005D01*
X000340Y002846D02*
X000841Y002846D01*
X000841Y002688D02*
X000340Y002688D01*
X000340Y002529D02*
X000860Y002529D01*
X000841Y002371D02*
X000340Y002371D01*
X000340Y002212D02*
X000841Y002212D01*
X000841Y002054D02*
X000340Y002054D01*
X000340Y001895D02*
X000879Y001895D01*
X000901Y001737D02*
X000340Y001737D01*
X000340Y001578D02*
X000901Y001578D01*
X000901Y001420D02*
X000340Y001420D01*
X000340Y001261D02*
X001530Y001261D01*
X001530Y001103D02*
X000340Y001103D01*
X000957Y000944D02*
X001530Y000944D01*
X001530Y000786D02*
X001060Y000786D01*
X001096Y000627D02*
X001530Y000627D01*
X001563Y000469D02*
X001082Y000469D01*
X001457Y001420D02*
X001493Y001420D01*
X001493Y001578D02*
X001457Y001578D01*
X001513Y001600D02*
X003975Y001600D01*
X003975Y013100D01*
X003955Y013149D02*
X003995Y013149D01*
X003975Y013225D02*
X003975Y014975D01*
X003943Y015047D02*
X003943Y015224D01*
X003674Y015494D01*
X003496Y015494D01*
X003496Y015047D01*
X003943Y015047D01*
X003943Y015051D02*
X003947Y015051D01*
X003850Y015100D02*
X003550Y015100D01*
X003535Y015098D01*
X003521Y015093D01*
X003508Y015085D01*
X003498Y015075D01*
X003490Y015062D01*
X003485Y015048D01*
X003483Y015033D01*
X003469Y015051D02*
X003496Y015051D01*
X003496Y015209D02*
X003469Y015209D01*
X003469Y015368D02*
X003496Y015368D01*
X003800Y015368D02*
X004065Y015368D01*
X003947Y015209D02*
X003943Y015209D01*
X003850Y015100D02*
X003870Y015098D01*
X003889Y015094D01*
X003907Y015086D01*
X003923Y015076D01*
X003938Y015063D01*
X003951Y015048D01*
X003961Y015032D01*
X003969Y015014D01*
X003973Y014995D01*
X003975Y014975D01*
X003947Y014892D02*
X003943Y014892D01*
X004031Y014734D02*
X003835Y014734D01*
X003890Y014575D02*
X004060Y014575D01*
X003975Y014002D02*
X004252Y013725D01*
X004612Y013725D01*
X004458Y013571D01*
X004438Y013523D01*
X004395Y013583D01*
X004333Y013645D01*
X004263Y013695D01*
X004186Y013735D01*
X004104Y013761D01*
X004018Y013775D01*
X003995Y013775D01*
X003995Y013245D01*
X003955Y013245D01*
X003955Y013775D01*
X003932Y013775D01*
X003846Y013761D01*
X003764Y013735D01*
X003687Y013695D01*
X003617Y013645D01*
X003555Y013583D01*
X003512Y013523D01*
X003492Y013571D01*
X003338Y013725D01*
X003698Y013725D01*
X003975Y014002D01*
X003914Y013941D02*
X004036Y013941D01*
X004194Y013783D02*
X003756Y013783D01*
X003596Y013624D02*
X003439Y013624D01*
X003444Y012832D02*
X003591Y012832D01*
X003236Y012673D02*
X004655Y012673D01*
X004655Y012515D02*
X000340Y012515D01*
X000340Y012673D02*
X001714Y012673D01*
X001506Y012832D02*
X000340Y012832D01*
X000340Y012990D02*
X001412Y012990D01*
X001365Y013149D02*
X000340Y013149D01*
X000340Y013307D02*
X001365Y013307D01*
X001414Y013466D02*
X000340Y013466D01*
X000340Y013624D02*
X001511Y013624D01*
X001727Y013783D02*
X000340Y013783D01*
X000340Y013941D02*
X003051Y013941D01*
X002962Y014100D02*
X000340Y014100D01*
X000340Y014258D02*
X002962Y014258D01*
X002962Y014417D02*
X000340Y014417D01*
X000340Y014575D02*
X003076Y014575D01*
X003131Y014734D02*
X000340Y014734D01*
X000340Y014892D02*
X003022Y014892D01*
X003022Y015051D02*
X000340Y015051D01*
X000340Y015209D02*
X001423Y015209D01*
X001427Y015207D02*
X001783Y015207D01*
X002111Y015343D01*
X002362Y015594D01*
X002498Y015922D01*
X002498Y016278D01*
X002362Y016606D01*
X002111Y016857D01*
X001783Y016993D01*
X001427Y016993D01*
X001099Y016857D01*
X000848Y016606D01*
X000712Y016278D01*
X000712Y015922D01*
X000848Y015594D01*
X001099Y015343D01*
X001427Y015207D01*
X001075Y015368D02*
X000340Y015368D01*
X000340Y015526D02*
X000916Y015526D01*
X000811Y015685D02*
X000340Y015685D01*
X000340Y015843D02*
X000745Y015843D01*
X000712Y016002D02*
X000340Y016002D01*
X000340Y016160D02*
X000712Y016160D01*
X000729Y016319D02*
X000340Y016319D01*
X000340Y016477D02*
X000795Y016477D01*
X000878Y016636D02*
X000340Y016636D01*
X000340Y016794D02*
X001036Y016794D01*
X000971Y017270D02*
X007104Y017270D01*
X007009Y017428D02*
X001066Y017428D01*
X001096Y017587D02*
X006979Y017587D01*
X006998Y017745D02*
X001077Y017745D01*
X001330Y016953D02*
X000340Y016953D01*
X000340Y017111D02*
X000485Y017111D01*
X000715Y017111D02*
X007360Y017111D01*
X007590Y017111D02*
X007730Y017111D01*
X007730Y016953D02*
X006620Y016953D01*
X006523Y016993D02*
X006167Y016993D01*
X005839Y016857D01*
X005588Y016606D01*
X005452Y016278D01*
X005452Y015922D01*
X005588Y015594D01*
X005839Y015343D01*
X006167Y015207D01*
X006523Y015207D01*
X006851Y015343D01*
X007102Y015594D01*
X007238Y015922D01*
X007238Y016278D01*
X007102Y016606D01*
X006851Y016857D01*
X006523Y016993D01*
X006914Y016794D02*
X007730Y016794D01*
X007730Y016636D02*
X007072Y016636D01*
X007155Y016477D02*
X007730Y016477D01*
X007730Y016319D02*
X007221Y016319D01*
X007238Y016160D02*
X007730Y016160D01*
X007730Y016002D02*
X007238Y016002D01*
X007205Y015843D02*
X007730Y015843D01*
X007730Y015685D02*
X007139Y015685D01*
X007034Y015526D02*
X007730Y015526D01*
X007730Y015368D02*
X006875Y015368D01*
X006527Y015209D02*
X007730Y015209D01*
X007730Y015051D02*
X004988Y015051D01*
X004988Y015209D02*
X006163Y015209D01*
X005815Y015368D02*
X004869Y015368D01*
X004710Y015526D02*
X005657Y015526D01*
X005551Y015685D02*
X002399Y015685D01*
X002465Y015843D02*
X005485Y015843D01*
X005452Y016002D02*
X002498Y016002D01*
X002498Y016160D02*
X005452Y016160D01*
X005469Y016319D02*
X002481Y016319D01*
X002415Y016477D02*
X005535Y016477D01*
X005618Y016636D02*
X002332Y016636D01*
X002173Y016794D02*
X005777Y016794D01*
X006070Y016953D02*
X001880Y016953D01*
X002293Y015526D02*
X004224Y015526D01*
X004904Y014734D02*
X007730Y014734D01*
X007730Y014892D02*
X004988Y014892D01*
X004874Y014575D02*
X007730Y014575D01*
X007730Y014417D02*
X004988Y014417D01*
X004988Y014258D02*
X007730Y014258D01*
X007730Y014100D02*
X004988Y014100D01*
X004899Y013941D02*
X007730Y013941D01*
X007730Y013783D02*
X006223Y013783D01*
X006439Y013624D02*
X007730Y013624D01*
X007730Y013466D02*
X006536Y013466D01*
X006585Y013307D02*
X007730Y013307D01*
X007730Y013149D02*
X006585Y013149D01*
X006538Y012990D02*
X007730Y012990D01*
X007730Y012832D02*
X006444Y012832D01*
X006236Y012673D02*
X007730Y012673D01*
X007730Y012515D02*
X005897Y012515D01*
X006091Y012356D02*
X007730Y012356D01*
X007730Y012198D02*
X006170Y012198D01*
X006170Y012039D02*
X007730Y012039D01*
X007730Y011881D02*
X006170Y011881D01*
X006170Y011722D02*
X007730Y011722D01*
X007730Y011564D02*
X006170Y011564D01*
X006170Y011405D02*
X007730Y011405D01*
X007730Y011247D02*
X006170Y011247D01*
X006170Y011088D02*
X007730Y011088D01*
X007730Y010930D02*
X006170Y010930D01*
X006170Y010771D02*
X007730Y010771D01*
X007730Y010613D02*
X006170Y010613D01*
X006170Y010454D02*
X007730Y010454D01*
X007730Y010296D02*
X006170Y010296D01*
X006170Y010137D02*
X007730Y010137D01*
X007730Y009979D02*
X006170Y009979D01*
X006170Y009820D02*
X007730Y009820D01*
X007730Y009662D02*
X006170Y009662D01*
X006170Y009503D02*
X007730Y009503D01*
X007730Y009345D02*
X006170Y009345D01*
X006170Y009186D02*
X007730Y009186D01*
X007730Y009028D02*
X007203Y009028D01*
X007227Y008869D02*
X007730Y008869D01*
X007730Y008711D02*
X007227Y008711D01*
X007227Y008552D02*
X007730Y008552D01*
X007730Y008394D02*
X007221Y008394D01*
X007227Y008235D02*
X007730Y008235D01*
X007730Y008077D02*
X007227Y008077D01*
X007227Y007918D02*
X007730Y007918D01*
X007730Y007760D02*
X007227Y007760D01*
X007227Y007601D02*
X007730Y007601D01*
X007730Y007443D02*
X007227Y007443D01*
X007220Y007284D02*
X007730Y007284D01*
X007730Y007126D02*
X007227Y007126D01*
X007227Y006967D02*
X007730Y006967D01*
X007730Y006809D02*
X007227Y006809D01*
X007209Y006650D02*
X007730Y006650D01*
X007730Y006492D02*
X007227Y006492D01*
X007227Y006333D02*
X007730Y006333D01*
X007730Y006175D02*
X007227Y006175D01*
X007227Y006016D02*
X007730Y006016D01*
X007730Y005858D02*
X007227Y005858D01*
X007227Y005699D02*
X007730Y005699D01*
X007730Y005541D02*
X007227Y005541D01*
X007227Y005382D02*
X007730Y005382D01*
X007730Y005224D02*
X007227Y005224D01*
X007227Y005065D02*
X007730Y005065D01*
X007730Y004907D02*
X007214Y004907D01*
X007227Y004748D02*
X007730Y004748D01*
X007730Y004590D02*
X007227Y004590D01*
X007227Y004431D02*
X007730Y004431D01*
X007730Y004273D02*
X007215Y004273D01*
X007227Y004114D02*
X007730Y004114D01*
X007730Y003956D02*
X007227Y003956D01*
X007227Y003797D02*
X007730Y003797D01*
X007730Y003639D02*
X007227Y003639D01*
X007227Y003480D02*
X007730Y003480D01*
X007730Y003322D02*
X007227Y003322D01*
X007226Y003163D02*
X007730Y003163D01*
X007730Y003005D02*
X007227Y003005D01*
X007227Y002846D02*
X007730Y002846D01*
X007730Y002688D02*
X007227Y002688D01*
X007208Y002529D02*
X007730Y002529D01*
X007730Y002371D02*
X007227Y002371D01*
X007227Y002212D02*
X007730Y002212D01*
X007730Y002054D02*
X007227Y002054D01*
X007189Y001895D02*
X007730Y001895D01*
X007730Y001737D02*
X007167Y001737D01*
X007167Y001620D02*
X006612Y001620D01*
X006612Y001262D01*
X007011Y001262D01*
X007056Y001274D01*
X007097Y001297D01*
X007131Y001331D01*
X007155Y001372D01*
X007167Y001418D01*
X007167Y001620D01*
X007167Y001578D02*
X007730Y001578D01*
X007730Y001420D02*
X007167Y001420D01*
X007118Y000944D02*
X006119Y000944D01*
X006101Y000949D02*
X006101Y001349D01*
X006019Y001578D02*
X002049Y001578D01*
X002049Y001737D02*
X006019Y001737D01*
X005997Y001895D02*
X002071Y001895D01*
X002109Y002688D02*
X002850Y002688D01*
X003225Y002475D02*
X003223Y002445D01*
X003218Y002416D01*
X003209Y002388D01*
X003197Y002361D01*
X003181Y002335D01*
X003163Y002312D01*
X003142Y002291D01*
X003119Y002273D01*
X003093Y002257D01*
X003066Y002245D01*
X003038Y002236D01*
X003009Y002231D01*
X002979Y002229D01*
X001475Y002229D01*
X001475Y001638D02*
X001476Y001628D01*
X001480Y001619D01*
X001486Y001611D01*
X001494Y001605D01*
X001503Y001601D01*
X001513Y001600D01*
X002109Y002846D02*
X003002Y002846D01*
X003358Y002054D02*
X005959Y002054D01*
X005959Y002212D02*
X003567Y002212D01*
X003645Y002371D02*
X005959Y002371D01*
X005881Y002819D02*
X006593Y002819D01*
X006593Y001638D02*
X005888Y001638D01*
X005878Y001637D01*
X005869Y001633D01*
X005861Y001627D01*
X005855Y001619D01*
X005851Y001610D01*
X005850Y001600D01*
X005850Y001850D01*
X005848Y001870D01*
X005844Y001889D01*
X005836Y001907D01*
X005826Y001923D01*
X005813Y001938D01*
X005798Y001951D01*
X005782Y001961D01*
X005764Y001969D01*
X005745Y001973D01*
X005725Y001975D01*
X005850Y001600D02*
X003975Y001600D01*
X003653Y002529D02*
X005441Y002529D01*
X005329Y002688D02*
X003600Y002688D01*
X003448Y002846D02*
X005297Y002846D01*
X005326Y003005D02*
X002109Y003005D01*
X002108Y003163D02*
X005433Y003163D01*
X005765Y003797D02*
X002109Y003797D01*
X002109Y003639D02*
X005959Y003639D01*
X005959Y003797D02*
X005935Y003797D01*
X005959Y003480D02*
X002109Y003480D01*
X002109Y003322D02*
X005959Y003322D01*
X005880Y002820D02*
X005863Y002811D01*
X005845Y002804D01*
X005826Y002801D01*
X005806Y002802D01*
X005787Y002805D01*
X005769Y002812D01*
X005752Y002823D01*
X005737Y002835D01*
X005725Y002851D01*
X005514Y003956D02*
X002109Y003956D01*
X002109Y004114D02*
X005433Y004114D01*
X005422Y004273D02*
X002097Y004273D01*
X002109Y004431D02*
X005472Y004431D01*
X005530Y004590D02*
X002109Y004590D01*
X002109Y004748D02*
X005530Y004748D01*
X005530Y004907D02*
X002096Y004907D01*
X002109Y005065D02*
X005530Y005065D01*
X005530Y005224D02*
X002109Y005224D01*
X002109Y005382D02*
X005530Y005382D01*
X005530Y005541D02*
X002109Y005541D01*
X002109Y005699D02*
X005530Y005699D01*
X005530Y005858D02*
X002109Y005858D01*
X002109Y006016D02*
X005530Y006016D01*
X005530Y006175D02*
X002109Y006175D01*
X002109Y006333D02*
X005530Y006333D01*
X005530Y006492D02*
X002109Y006492D01*
X002091Y006650D02*
X005530Y006650D01*
X005530Y006809D02*
X002109Y006809D01*
X002109Y006967D02*
X005530Y006967D01*
X005530Y007126D02*
X002109Y007126D01*
X002102Y007284D02*
X005530Y007284D01*
X005530Y007443D02*
X002109Y007443D01*
X002109Y007601D02*
X005530Y007601D01*
X005530Y007760D02*
X002109Y007760D01*
X002109Y007918D02*
X005530Y007918D01*
X005530Y008077D02*
X002807Y008077D01*
X002891Y008235D02*
X005530Y008235D01*
X005530Y008394D02*
X002903Y008394D01*
X002855Y008552D02*
X005530Y008552D01*
X005530Y008711D02*
X002795Y008711D01*
X002795Y008869D02*
X005530Y008869D01*
X005530Y009028D02*
X002857Y009028D01*
X002903Y009186D02*
X005530Y009186D01*
X005530Y009345D02*
X002889Y009345D01*
X002802Y009503D02*
X005530Y009503D01*
X005530Y009979D02*
X000340Y009979D01*
X000340Y010137D02*
X005530Y010137D01*
X005530Y010296D02*
X000340Y010296D01*
X000340Y010454D02*
X005530Y010454D01*
X005530Y010613D02*
X000340Y010613D01*
X000340Y010771D02*
X005530Y010771D01*
X005530Y010930D02*
X000340Y010930D01*
X000340Y011088D02*
X005530Y011088D01*
X005530Y011247D02*
X000340Y011247D01*
X000340Y011405D02*
X005530Y011405D01*
X005530Y011564D02*
X000340Y011564D01*
X000340Y011722D02*
X005530Y011722D01*
X005530Y011881D02*
X000340Y011881D01*
X000340Y012039D02*
X004766Y012039D01*
X004774Y012024D02*
X004774Y012024D01*
X004674Y012198D02*
X000340Y012198D01*
X000340Y012356D02*
X004655Y012356D01*
X004506Y012832D02*
X004359Y012832D01*
X004354Y013624D02*
X004511Y013624D01*
X003995Y013624D02*
X003955Y013624D01*
X003955Y013466D02*
X003995Y013466D01*
X003995Y013307D02*
X003955Y013307D01*
X003975Y013225D02*
X003986Y013212D01*
X003994Y013197D01*
X003999Y013180D01*
X004001Y013163D01*
X003999Y013146D01*
X003994Y013129D01*
X003986Y013114D01*
X003975Y013101D01*
X003955Y012990D02*
X003995Y012990D01*
X003995Y012832D02*
X003955Y012832D01*
X004975Y013225D02*
X004975Y012350D01*
X004977Y012330D01*
X004981Y012311D01*
X004989Y012293D01*
X004999Y012277D01*
X005012Y012262D01*
X005027Y012249D01*
X005043Y012239D01*
X005061Y012231D01*
X005080Y012227D01*
X005100Y012225D01*
X005725Y012225D01*
X005745Y012223D01*
X005764Y012219D01*
X005782Y012211D01*
X005798Y012201D01*
X005813Y012188D01*
X005826Y012173D01*
X005836Y012157D01*
X005844Y012139D01*
X005848Y012120D01*
X005850Y012100D01*
X005850Y004225D01*
X006575Y001578D02*
X006612Y001578D01*
X006612Y001420D02*
X006575Y001420D01*
X006478Y001261D02*
X007730Y001261D01*
X007730Y001103D02*
X006478Y001103D01*
X006478Y000786D02*
X007015Y000786D01*
X006979Y000627D02*
X006478Y000627D01*
X006426Y000469D02*
X006993Y000469D01*
X006119Y000469D02*
X006083Y000469D01*
X006083Y000627D02*
X006119Y000627D01*
X006119Y000786D02*
X006083Y000786D01*
X006101Y001349D02*
X006099Y001379D01*
X006094Y001409D01*
X006085Y001438D01*
X006072Y001466D01*
X006057Y001492D01*
X006038Y001515D01*
X006016Y001537D01*
X005993Y001556D01*
X005967Y001571D01*
X005939Y001584D01*
X005910Y001593D01*
X005880Y001598D01*
X005850Y001600D01*
X002475Y008350D02*
X002475Y009225D01*
X002148Y009503D02*
X001625Y009503D01*
X001653Y009345D02*
X002061Y009345D01*
X002047Y009186D02*
X001620Y009186D01*
X002085Y009028D02*
X002093Y009028D01*
X002109Y008869D02*
X002155Y008869D01*
X002155Y008711D02*
X002109Y008711D01*
X002109Y008077D02*
X002143Y008077D01*
X000841Y006809D02*
X000838Y006809D01*
X002236Y012673D02*
X002714Y012673D01*
X002506Y012832D02*
X002444Y012832D01*
X002439Y013624D02*
X002511Y013624D01*
X002727Y013783D02*
X002223Y013783D01*
X001787Y015209D02*
X003022Y015209D01*
X003166Y015368D02*
X002135Y015368D01*
X005223Y013783D02*
X005727Y013783D01*
X005511Y013624D02*
X005439Y013624D01*
X005444Y012832D02*
X005506Y012832D01*
X005714Y012673D02*
X005295Y012673D01*
D16*
X002475Y009225D03*
X002475Y008350D03*
X001225Y009350D03*
X000725Y007225D03*
X003225Y002475D03*
X005725Y002850D03*
X005725Y001975D03*
X005850Y004225D03*
M02*
