%
M48
M72
T01C0.0236
T02C0.0374
T03C0.0400
T04C0.0512
T05C0.0906
%
T01
X725Y7225
X1225Y9350
X2475Y9225
X2475Y8350
X3225Y2475
X5725Y2850
X5725Y1975
X5850Y4225
T02
X4467Y14246
X4467Y15033
X3483Y15033
X3483Y14246
T03
X3975Y13225
X4975Y13225
X5975Y13225
X2975Y13225
X1975Y13225
T04
X600Y600
X600Y17600
X7475Y17600
X7475Y600
T05
X6345Y16100
X1605Y16100
M30
