G75*
%MOIN*%
%OFA0B0*%
%FSLAX24Y24*%
%IPPOS*%
%LPD*%
%AMOC8*
5,1,8,0,0,1.08239X$1,22.5*
%
%ADD10C,0.0000*%
%ADD11C,0.0030*%
%ADD12C,0.0050*%
%ADD13C,0.0040*%
%ADD14C,0.0100*%
%ADD15C,0.0020*%
%ADD16C,0.0010*%
%ADD17C,0.0080*%
D10*
X000100Y000100D02*
X000100Y018096D01*
X007970Y018096D01*
X007970Y000100D01*
X000100Y000100D01*
X000344Y000600D02*
X000346Y000631D01*
X000352Y000662D01*
X000361Y000692D01*
X000374Y000721D01*
X000391Y000748D01*
X000411Y000772D01*
X000433Y000794D01*
X000459Y000813D01*
X000486Y000829D01*
X000515Y000841D01*
X000545Y000850D01*
X000576Y000855D01*
X000608Y000856D01*
X000639Y000853D01*
X000670Y000846D01*
X000700Y000836D01*
X000728Y000822D01*
X000754Y000804D01*
X000778Y000784D01*
X000799Y000760D01*
X000818Y000735D01*
X000833Y000707D01*
X000844Y000678D01*
X000852Y000647D01*
X000856Y000616D01*
X000856Y000584D01*
X000852Y000553D01*
X000844Y000522D01*
X000833Y000493D01*
X000818Y000465D01*
X000799Y000440D01*
X000778Y000416D01*
X000754Y000396D01*
X000728Y000378D01*
X000700Y000364D01*
X000670Y000354D01*
X000639Y000347D01*
X000608Y000344D01*
X000576Y000345D01*
X000545Y000350D01*
X000515Y000359D01*
X000486Y000371D01*
X000459Y000387D01*
X000433Y000406D01*
X000411Y000428D01*
X000391Y000452D01*
X000374Y000479D01*
X000361Y000508D01*
X000352Y000538D01*
X000346Y000569D01*
X000344Y000600D01*
X000344Y017600D02*
X000346Y017631D01*
X000352Y017662D01*
X000361Y017692D01*
X000374Y017721D01*
X000391Y017748D01*
X000411Y017772D01*
X000433Y017794D01*
X000459Y017813D01*
X000486Y017829D01*
X000515Y017841D01*
X000545Y017850D01*
X000576Y017855D01*
X000608Y017856D01*
X000639Y017853D01*
X000670Y017846D01*
X000700Y017836D01*
X000728Y017822D01*
X000754Y017804D01*
X000778Y017784D01*
X000799Y017760D01*
X000818Y017735D01*
X000833Y017707D01*
X000844Y017678D01*
X000852Y017647D01*
X000856Y017616D01*
X000856Y017584D01*
X000852Y017553D01*
X000844Y017522D01*
X000833Y017493D01*
X000818Y017465D01*
X000799Y017440D01*
X000778Y017416D01*
X000754Y017396D01*
X000728Y017378D01*
X000700Y017364D01*
X000670Y017354D01*
X000639Y017347D01*
X000608Y017344D01*
X000576Y017345D01*
X000545Y017350D01*
X000515Y017359D01*
X000486Y017371D01*
X000459Y017387D01*
X000433Y017406D01*
X000411Y017428D01*
X000391Y017452D01*
X000374Y017479D01*
X000361Y017508D01*
X000352Y017538D01*
X000346Y017569D01*
X000344Y017600D01*
X007219Y017600D02*
X007221Y017631D01*
X007227Y017662D01*
X007236Y017692D01*
X007249Y017721D01*
X007266Y017748D01*
X007286Y017772D01*
X007308Y017794D01*
X007334Y017813D01*
X007361Y017829D01*
X007390Y017841D01*
X007420Y017850D01*
X007451Y017855D01*
X007483Y017856D01*
X007514Y017853D01*
X007545Y017846D01*
X007575Y017836D01*
X007603Y017822D01*
X007629Y017804D01*
X007653Y017784D01*
X007674Y017760D01*
X007693Y017735D01*
X007708Y017707D01*
X007719Y017678D01*
X007727Y017647D01*
X007731Y017616D01*
X007731Y017584D01*
X007727Y017553D01*
X007719Y017522D01*
X007708Y017493D01*
X007693Y017465D01*
X007674Y017440D01*
X007653Y017416D01*
X007629Y017396D01*
X007603Y017378D01*
X007575Y017364D01*
X007545Y017354D01*
X007514Y017347D01*
X007483Y017344D01*
X007451Y017345D01*
X007420Y017350D01*
X007390Y017359D01*
X007361Y017371D01*
X007334Y017387D01*
X007308Y017406D01*
X007286Y017428D01*
X007266Y017452D01*
X007249Y017479D01*
X007236Y017508D01*
X007227Y017538D01*
X007221Y017569D01*
X007219Y017600D01*
X007219Y000600D02*
X007221Y000631D01*
X007227Y000662D01*
X007236Y000692D01*
X007249Y000721D01*
X007266Y000748D01*
X007286Y000772D01*
X007308Y000794D01*
X007334Y000813D01*
X007361Y000829D01*
X007390Y000841D01*
X007420Y000850D01*
X007451Y000855D01*
X007483Y000856D01*
X007514Y000853D01*
X007545Y000846D01*
X007575Y000836D01*
X007603Y000822D01*
X007629Y000804D01*
X007653Y000784D01*
X007674Y000760D01*
X007693Y000735D01*
X007708Y000707D01*
X007719Y000678D01*
X007727Y000647D01*
X007731Y000616D01*
X007731Y000584D01*
X007727Y000553D01*
X007719Y000522D01*
X007708Y000493D01*
X007693Y000465D01*
X007674Y000440D01*
X007653Y000416D01*
X007629Y000396D01*
X007603Y000378D01*
X007575Y000364D01*
X007545Y000354D01*
X007514Y000347D01*
X007483Y000344D01*
X007451Y000345D01*
X007420Y000350D01*
X007390Y000359D01*
X007361Y000371D01*
X007334Y000387D01*
X007308Y000406D01*
X007286Y000428D01*
X007266Y000452D01*
X007249Y000479D01*
X007236Y000508D01*
X007227Y000538D01*
X007221Y000569D01*
X007219Y000600D01*
D11*
X007215Y008490D02*
X007215Y008675D01*
X007276Y008737D01*
X007338Y008737D01*
X007400Y008675D01*
X007400Y008490D01*
X007400Y008675D02*
X007462Y008737D01*
X007523Y008737D01*
X007585Y008675D01*
X007585Y008490D01*
X007215Y008490D01*
X007215Y008858D02*
X007215Y009105D01*
X007215Y008982D02*
X007585Y008982D01*
X007647Y009227D02*
X007647Y009474D01*
X007585Y009595D02*
X007215Y009595D01*
X007215Y009780D01*
X007276Y009842D01*
X007400Y009842D01*
X007462Y009780D01*
X007462Y009595D01*
X007462Y009718D02*
X007585Y009842D01*
X007523Y009963D02*
X007585Y010025D01*
X007585Y010148D01*
X007523Y010210D01*
X007400Y010210D01*
X007400Y010087D01*
X007276Y010210D02*
X007215Y010148D01*
X007215Y010025D01*
X007276Y009963D01*
X007523Y009963D01*
X007585Y010332D02*
X007585Y010517D01*
X007523Y010578D01*
X007462Y010578D01*
X007400Y010517D01*
X007400Y010332D01*
X007400Y010517D02*
X007338Y010578D01*
X007276Y010578D01*
X007215Y010517D01*
X007215Y010332D01*
X007585Y010332D01*
X007585Y010990D02*
X007585Y011175D01*
X007523Y011237D01*
X007276Y011237D01*
X007215Y011175D01*
X007215Y010990D01*
X007585Y010990D01*
X007523Y011358D02*
X007585Y011420D01*
X007585Y011543D01*
X007523Y011605D01*
X007462Y011605D01*
X007400Y011543D01*
X007400Y011420D01*
X007338Y011358D01*
X007276Y011358D01*
X007215Y011420D01*
X007215Y011543D01*
X007276Y011605D01*
X007338Y011865D02*
X007215Y011988D01*
X007585Y011988D01*
X007585Y011865D02*
X007585Y012112D01*
X007400Y012233D02*
X007400Y012480D01*
X007215Y012418D02*
X007400Y012233D01*
X007585Y012418D02*
X007215Y012418D01*
D12*
X007045Y012467D02*
X007045Y012617D01*
X007045Y012542D02*
X006595Y012542D01*
X006595Y012467D02*
X006595Y012617D01*
X006593Y012465D02*
X006593Y009119D01*
X006593Y012465D02*
X001475Y012465D01*
X001475Y009119D01*
X006595Y012849D02*
X006595Y012999D01*
X006670Y013074D01*
X006670Y013234D02*
X006595Y013309D01*
X006595Y013459D01*
X006670Y013534D01*
X006745Y013534D01*
X006820Y013459D01*
X006820Y013309D01*
X006895Y013234D01*
X006970Y013234D01*
X007045Y013309D01*
X007045Y013459D01*
X006970Y013534D01*
X007045Y013695D02*
X007045Y013920D01*
X006970Y013995D01*
X006820Y013995D01*
X006745Y013920D01*
X006745Y013695D01*
X006595Y013695D02*
X007045Y013695D01*
X006970Y013074D02*
X007045Y012999D01*
X007045Y012849D01*
X006970Y012774D01*
X006670Y012774D01*
X006595Y012849D01*
D13*
X001252Y012807D02*
X001252Y012960D01*
X001176Y013037D01*
X001099Y013037D01*
X001022Y012960D01*
X001022Y012730D01*
X001176Y012730D01*
X001252Y012807D01*
X001176Y012577D02*
X001252Y012500D01*
X001252Y012347D01*
X001176Y012270D01*
X000869Y012577D01*
X001176Y012577D01*
X001022Y012730D02*
X000869Y012884D01*
X000792Y013037D01*
X000869Y012577D02*
X000792Y012500D01*
X000792Y012347D01*
X000869Y012270D01*
X001176Y012270D01*
X001022Y012116D02*
X001022Y011809D01*
X000869Y011656D02*
X000792Y011579D01*
X000792Y011426D01*
X000869Y011349D01*
X001176Y011349D01*
X001252Y011426D01*
X001252Y011579D01*
X001176Y011656D01*
X001252Y011196D02*
X000792Y011196D01*
X000792Y010889D02*
X001252Y010889D01*
X001022Y010889D02*
X001022Y011196D01*
D14*
X001652Y013895D02*
X001652Y015346D01*
X001652Y013895D02*
X006298Y013895D01*
X006298Y015346D01*
X006298Y016895D02*
X006298Y020096D01*
X001652Y020096D01*
X001652Y016895D01*
D15*
X002335Y016551D02*
X002335Y016206D01*
X002532Y016206D01*
X002532Y016009D02*
X002559Y016011D01*
X002585Y016016D01*
X002610Y016025D01*
X002634Y016038D01*
X002656Y016053D01*
X002676Y016072D01*
X002693Y016092D01*
X002707Y016115D01*
X002718Y016140D01*
X002725Y016166D01*
X002729Y016193D01*
X002729Y016219D01*
X002725Y016246D01*
X002718Y016272D01*
X002707Y016297D01*
X002693Y016320D01*
X002676Y016340D01*
X002656Y016359D01*
X002634Y016374D01*
X002610Y016387D01*
X002585Y016396D01*
X002559Y016401D01*
X002532Y016403D01*
X002532Y016206D01*
X002631Y015812D02*
X002670Y015814D01*
X002708Y015820D01*
X002745Y015829D01*
X002782Y015842D01*
X002817Y015859D01*
X002850Y015878D01*
X002881Y015901D01*
X002910Y015927D01*
X002936Y015956D01*
X002959Y015987D01*
X002978Y016020D01*
X002995Y016055D01*
X003008Y016092D01*
X003017Y016129D01*
X003023Y016167D01*
X003025Y016206D01*
X003023Y016245D01*
X003017Y016283D01*
X003008Y016320D01*
X002995Y016357D01*
X002978Y016392D01*
X002959Y016425D01*
X002936Y016456D01*
X002910Y016485D01*
X002881Y016511D01*
X002850Y016534D01*
X002817Y016553D01*
X002782Y016570D01*
X002745Y016583D01*
X002708Y016592D01*
X002670Y016598D01*
X002631Y016600D01*
X002532Y016010D02*
X002483Y016005D01*
X002434Y016003D01*
X002385Y016005D01*
X002336Y016010D01*
X002337Y016009D02*
X002337Y015834D01*
X002336Y016551D02*
X002393Y016568D01*
X002452Y016582D01*
X002511Y016592D01*
X002571Y016598D01*
X002631Y016600D01*
X002630Y015813D02*
X002555Y015812D01*
X002480Y015816D01*
X002405Y015823D01*
X002331Y015834D01*
X003319Y016305D02*
X003123Y016600D01*
X003418Y016600D01*
X003615Y016305D01*
X003615Y016600D01*
X003861Y016600D01*
X003861Y015813D01*
X003319Y015813D01*
X003289Y015815D01*
X003260Y015820D01*
X003232Y015829D01*
X003205Y015841D01*
X003179Y015857D01*
X003156Y015875D01*
X003135Y015896D01*
X003117Y015919D01*
X003101Y015945D01*
X003089Y015972D01*
X003080Y016000D01*
X003075Y016029D01*
X003073Y016059D01*
X003075Y016089D01*
X003080Y016118D01*
X003089Y016146D01*
X003101Y016173D01*
X003117Y016199D01*
X003135Y016222D01*
X003156Y016243D01*
X003179Y016261D01*
X003205Y016277D01*
X003232Y016289D01*
X003260Y016298D01*
X003289Y016303D01*
X003319Y016305D01*
X003467Y016157D02*
X003615Y016157D01*
X003615Y016009D01*
X003467Y016009D01*
X003452Y016011D01*
X003437Y016015D01*
X003424Y016023D01*
X003412Y016033D01*
X003403Y016046D01*
X003397Y016060D01*
X003393Y016075D01*
X003393Y016091D01*
X003397Y016106D01*
X003403Y016120D01*
X003412Y016133D01*
X003424Y016143D01*
X003437Y016151D01*
X003452Y016155D01*
X003467Y016157D01*
X003959Y016108D02*
X004402Y016108D01*
X004402Y016009D01*
X003959Y016009D01*
X003959Y015813D01*
X004648Y015813D01*
X004648Y016600D01*
X003959Y016600D01*
X003959Y016403D01*
X004402Y016403D01*
X004402Y016305D01*
X003959Y016305D01*
X003959Y016108D01*
X004944Y016206D02*
X004917Y016204D01*
X004891Y016199D01*
X004866Y016190D01*
X004842Y016177D01*
X004820Y016162D01*
X004800Y016143D01*
X004783Y016123D01*
X004769Y016100D01*
X004758Y016075D01*
X004751Y016049D01*
X004747Y016022D01*
X004747Y015996D01*
X004751Y015969D01*
X004758Y015943D01*
X004769Y015918D01*
X004783Y015895D01*
X004800Y015875D01*
X004820Y015856D01*
X004842Y015841D01*
X004866Y015828D01*
X004891Y015819D01*
X004917Y015814D01*
X004944Y015812D01*
X004944Y015813D02*
X005239Y015813D01*
X004944Y016009D01*
X005239Y016206D01*
X004944Y016403D01*
X004944Y016600D02*
X004917Y016598D01*
X004891Y016593D01*
X004866Y016584D01*
X004842Y016571D01*
X004820Y016556D01*
X004800Y016537D01*
X004783Y016517D01*
X004769Y016494D01*
X004758Y016469D01*
X004751Y016443D01*
X004747Y016416D01*
X004747Y016390D01*
X004751Y016363D01*
X004758Y016337D01*
X004769Y016312D01*
X004783Y016289D01*
X004800Y016269D01*
X004820Y016250D01*
X004842Y016235D01*
X004866Y016222D01*
X004891Y016213D01*
X004917Y016208D01*
X004944Y016206D01*
X004944Y016403D02*
X005239Y016600D01*
X004944Y016600D01*
X005239Y016600D02*
X005239Y016206D01*
X005239Y015813D01*
X005485Y015813D01*
X005485Y016600D01*
X005239Y016600D01*
D16*
X005113Y016748D02*
X005138Y016773D01*
X005113Y016748D02*
X005063Y016748D01*
X005038Y016773D01*
X005038Y016873D01*
X005063Y016898D01*
X005113Y016898D01*
X005138Y016873D01*
X005333Y016873D02*
X005333Y016848D01*
X005358Y016823D01*
X005408Y016823D01*
X005433Y016798D01*
X005433Y016773D01*
X005408Y016748D01*
X005358Y016748D01*
X005333Y016773D01*
X005333Y016873D02*
X005358Y016898D01*
X005408Y016898D01*
X005433Y016873D01*
X004843Y016898D02*
X004792Y016898D01*
X004817Y016898D02*
X004817Y016748D01*
X004792Y016748D02*
X004843Y016748D01*
X004598Y016748D02*
X004598Y016898D01*
X004498Y016898D02*
X004498Y016748D01*
X004598Y016748D02*
X004498Y016898D01*
X004303Y016873D02*
X004303Y016773D01*
X004278Y016748D01*
X004228Y016748D01*
X004203Y016773D01*
X004203Y016873D01*
X004228Y016898D01*
X004278Y016898D01*
X004303Y016873D01*
X004009Y016873D02*
X004009Y016823D01*
X003984Y016798D01*
X003909Y016798D01*
X003959Y016798D02*
X004009Y016748D01*
X003909Y016748D02*
X003909Y016898D01*
X003984Y016898D01*
X004009Y016873D01*
X003714Y016898D02*
X003614Y016898D01*
X003664Y016898D02*
X003664Y016748D01*
X003419Y016773D02*
X003394Y016748D01*
X003344Y016748D01*
X003319Y016773D01*
X003319Y016873D01*
X003344Y016898D01*
X003394Y016898D01*
X003419Y016873D01*
X003125Y016898D02*
X003025Y016898D01*
X003025Y016748D01*
X003125Y016748D01*
X003075Y016823D02*
X003025Y016823D01*
X002830Y016748D02*
X002730Y016748D01*
X002730Y016898D01*
X002535Y016898D02*
X002435Y016898D01*
X002435Y016748D01*
X002535Y016748D01*
X002485Y016823D02*
X002435Y016823D01*
D17*
X002225Y013725D02*
X001725Y013725D01*
X001475Y013475D01*
X001475Y012975D01*
X001725Y012725D01*
X002225Y012725D01*
X002475Y012975D01*
X002725Y012725D01*
X003225Y012725D01*
X003475Y012975D01*
X003725Y012725D01*
X004225Y012725D01*
X004475Y012975D01*
X004725Y012725D01*
X005225Y012725D01*
X005475Y012975D01*
X005725Y012725D01*
X006225Y012725D01*
X006475Y012975D01*
X006475Y013475D01*
X006225Y013725D01*
X005725Y013725D01*
X005475Y013475D01*
X005225Y013725D01*
X004725Y013725D01*
X004475Y013475D01*
X004225Y013725D01*
X003725Y013725D01*
X003475Y013475D01*
X003225Y013725D01*
X002725Y013725D01*
X002475Y013475D01*
X002225Y013725D01*
M02*
