G75*
%MOIN*%
%OFA0B0*%
%FSLAX24Y24*%
%IPPOS*%
%LPD*%
%AMOC8*
5,1,8,0,0,1.08239X$1,22.5*
%
%ADD10C,0.0572*%
%ADD11R,0.0847X0.0454*%
%ADD12R,0.0454X0.0769*%
%ADD13OC8,0.0621*%
%ADD14C,0.1366*%
%ADD15C,0.0800*%
%ADD16C,0.0436*%
D10*
X000600Y000600D03*
X000600Y017600D03*
X007475Y017600D03*
X007475Y000600D03*
D11*
X006593Y001638D03*
X006593Y002229D03*
X006593Y002819D03*
X006593Y003410D03*
X006593Y004001D03*
X006593Y004591D03*
X006593Y005182D03*
X006593Y005772D03*
X006593Y006363D03*
X006593Y006953D03*
X006593Y007544D03*
X006593Y008134D03*
X006593Y008725D03*
X001475Y008725D03*
X001475Y008134D03*
X001475Y007544D03*
X001475Y006953D03*
X001475Y006363D03*
X001475Y005772D03*
X001475Y005182D03*
X001475Y004591D03*
X001475Y004001D03*
X001475Y003410D03*
X001475Y002819D03*
X001475Y002229D03*
X001475Y001638D03*
D12*
X001967Y000949D03*
X002558Y000949D03*
X003148Y000949D03*
X003739Y000949D03*
X004329Y000949D03*
X004920Y000949D03*
X005510Y000949D03*
X006101Y000949D03*
D13*
X004467Y014246D03*
X004467Y015033D03*
X003483Y015033D03*
X003483Y014246D03*
D14*
X001605Y016100D03*
X006345Y016100D03*
D15*
X005975Y013225D03*
X004975Y013225D03*
X003975Y013225D03*
X002975Y013225D03*
X001975Y013225D03*
D16*
X001225Y009350D03*
X000725Y007225D03*
X002475Y008350D03*
X002475Y009225D03*
X003225Y002475D03*
X005725Y002850D03*
X005725Y001975D03*
X005850Y004225D03*
M02*
