G75*
%MOIN*%
%OFA0B0*%
%FSLAX24Y24*%
%IPPOS*%
%LPD*%
%AMOC8*
5,1,8,0,0,1.08239X$1,22.5*
%
%ADD10C,0.0000*%
D10*
X000100Y000100D02*
X000100Y018096D01*
X007970Y018096D01*
X007970Y000100D01*
X000100Y000100D01*
X000344Y000600D02*
X000346Y000631D01*
X000352Y000662D01*
X000361Y000692D01*
X000374Y000721D01*
X000391Y000748D01*
X000411Y000772D01*
X000433Y000794D01*
X000459Y000813D01*
X000486Y000829D01*
X000515Y000841D01*
X000545Y000850D01*
X000576Y000855D01*
X000608Y000856D01*
X000639Y000853D01*
X000670Y000846D01*
X000700Y000836D01*
X000728Y000822D01*
X000754Y000804D01*
X000778Y000784D01*
X000799Y000760D01*
X000818Y000735D01*
X000833Y000707D01*
X000844Y000678D01*
X000852Y000647D01*
X000856Y000616D01*
X000856Y000584D01*
X000852Y000553D01*
X000844Y000522D01*
X000833Y000493D01*
X000818Y000465D01*
X000799Y000440D01*
X000778Y000416D01*
X000754Y000396D01*
X000728Y000378D01*
X000700Y000364D01*
X000670Y000354D01*
X000639Y000347D01*
X000608Y000344D01*
X000576Y000345D01*
X000545Y000350D01*
X000515Y000359D01*
X000486Y000371D01*
X000459Y000387D01*
X000433Y000406D01*
X000411Y000428D01*
X000391Y000452D01*
X000374Y000479D01*
X000361Y000508D01*
X000352Y000538D01*
X000346Y000569D01*
X000344Y000600D01*
X000344Y017600D02*
X000346Y017631D01*
X000352Y017662D01*
X000361Y017692D01*
X000374Y017721D01*
X000391Y017748D01*
X000411Y017772D01*
X000433Y017794D01*
X000459Y017813D01*
X000486Y017829D01*
X000515Y017841D01*
X000545Y017850D01*
X000576Y017855D01*
X000608Y017856D01*
X000639Y017853D01*
X000670Y017846D01*
X000700Y017836D01*
X000728Y017822D01*
X000754Y017804D01*
X000778Y017784D01*
X000799Y017760D01*
X000818Y017735D01*
X000833Y017707D01*
X000844Y017678D01*
X000852Y017647D01*
X000856Y017616D01*
X000856Y017584D01*
X000852Y017553D01*
X000844Y017522D01*
X000833Y017493D01*
X000818Y017465D01*
X000799Y017440D01*
X000778Y017416D01*
X000754Y017396D01*
X000728Y017378D01*
X000700Y017364D01*
X000670Y017354D01*
X000639Y017347D01*
X000608Y017344D01*
X000576Y017345D01*
X000545Y017350D01*
X000515Y017359D01*
X000486Y017371D01*
X000459Y017387D01*
X000433Y017406D01*
X000411Y017428D01*
X000391Y017452D01*
X000374Y017479D01*
X000361Y017508D01*
X000352Y017538D01*
X000346Y017569D01*
X000344Y017600D01*
X007219Y017600D02*
X007221Y017631D01*
X007227Y017662D01*
X007236Y017692D01*
X007249Y017721D01*
X007266Y017748D01*
X007286Y017772D01*
X007308Y017794D01*
X007334Y017813D01*
X007361Y017829D01*
X007390Y017841D01*
X007420Y017850D01*
X007451Y017855D01*
X007483Y017856D01*
X007514Y017853D01*
X007545Y017846D01*
X007575Y017836D01*
X007603Y017822D01*
X007629Y017804D01*
X007653Y017784D01*
X007674Y017760D01*
X007693Y017735D01*
X007708Y017707D01*
X007719Y017678D01*
X007727Y017647D01*
X007731Y017616D01*
X007731Y017584D01*
X007727Y017553D01*
X007719Y017522D01*
X007708Y017493D01*
X007693Y017465D01*
X007674Y017440D01*
X007653Y017416D01*
X007629Y017396D01*
X007603Y017378D01*
X007575Y017364D01*
X007545Y017354D01*
X007514Y017347D01*
X007483Y017344D01*
X007451Y017345D01*
X007420Y017350D01*
X007390Y017359D01*
X007361Y017371D01*
X007334Y017387D01*
X007308Y017406D01*
X007286Y017428D01*
X007266Y017452D01*
X007249Y017479D01*
X007236Y017508D01*
X007227Y017538D01*
X007221Y017569D01*
X007219Y017600D01*
X007219Y000600D02*
X007221Y000631D01*
X007227Y000662D01*
X007236Y000692D01*
X007249Y000721D01*
X007266Y000748D01*
X007286Y000772D01*
X007308Y000794D01*
X007334Y000813D01*
X007361Y000829D01*
X007390Y000841D01*
X007420Y000850D01*
X007451Y000855D01*
X007483Y000856D01*
X007514Y000853D01*
X007545Y000846D01*
X007575Y000836D01*
X007603Y000822D01*
X007629Y000804D01*
X007653Y000784D01*
X007674Y000760D01*
X007693Y000735D01*
X007708Y000707D01*
X007719Y000678D01*
X007727Y000647D01*
X007731Y000616D01*
X007731Y000584D01*
X007727Y000553D01*
X007719Y000522D01*
X007708Y000493D01*
X007693Y000465D01*
X007674Y000440D01*
X007653Y000416D01*
X007629Y000396D01*
X007603Y000378D01*
X007575Y000364D01*
X007545Y000354D01*
X007514Y000347D01*
X007483Y000344D01*
X007451Y000345D01*
X007420Y000350D01*
X007390Y000359D01*
X007361Y000371D01*
X007334Y000387D01*
X007308Y000406D01*
X007286Y000428D01*
X007266Y000452D01*
X007249Y000479D01*
X007236Y000508D01*
X007227Y000538D01*
X007221Y000569D01*
X007219Y000600D01*
M02*
