G75*
%MOIN*%
%OFA0B0*%
%FSLAX24Y24*%
%IPPOS*%
%LPD*%
%AMOC8*
5,1,8,0,0,1.08239X$1,22.5*
%
%ADD10C,0.0000*%
%ADD11C,0.0080*%
%ADD12C,0.0157*%
%ADD13C,0.0030*%
%ADD14R,0.0079X0.0079*%
%ADD15C,0.0040*%
%ADD16C,0.0050*%
%ADD17C,0.0060*%
%ADD18C,0.0010*%
D10*
X000100Y000100D02*
X000100Y018096D01*
X007970Y018096D01*
X007970Y000100D01*
X000100Y000100D01*
X000344Y000600D02*
X000346Y000631D01*
X000352Y000662D01*
X000361Y000692D01*
X000374Y000721D01*
X000391Y000748D01*
X000411Y000772D01*
X000433Y000794D01*
X000459Y000813D01*
X000486Y000829D01*
X000515Y000841D01*
X000545Y000850D01*
X000576Y000855D01*
X000608Y000856D01*
X000639Y000853D01*
X000670Y000846D01*
X000700Y000836D01*
X000728Y000822D01*
X000754Y000804D01*
X000778Y000784D01*
X000799Y000760D01*
X000818Y000735D01*
X000833Y000707D01*
X000844Y000678D01*
X000852Y000647D01*
X000856Y000616D01*
X000856Y000584D01*
X000852Y000553D01*
X000844Y000522D01*
X000833Y000493D01*
X000818Y000465D01*
X000799Y000440D01*
X000778Y000416D01*
X000754Y000396D01*
X000728Y000378D01*
X000700Y000364D01*
X000670Y000354D01*
X000639Y000347D01*
X000608Y000344D01*
X000576Y000345D01*
X000545Y000350D01*
X000515Y000359D01*
X000486Y000371D01*
X000459Y000387D01*
X000433Y000406D01*
X000411Y000428D01*
X000391Y000452D01*
X000374Y000479D01*
X000361Y000508D01*
X000352Y000538D01*
X000346Y000569D01*
X000344Y000600D01*
X000344Y017600D02*
X000346Y017631D01*
X000352Y017662D01*
X000361Y017692D01*
X000374Y017721D01*
X000391Y017748D01*
X000411Y017772D01*
X000433Y017794D01*
X000459Y017813D01*
X000486Y017829D01*
X000515Y017841D01*
X000545Y017850D01*
X000576Y017855D01*
X000608Y017856D01*
X000639Y017853D01*
X000670Y017846D01*
X000700Y017836D01*
X000728Y017822D01*
X000754Y017804D01*
X000778Y017784D01*
X000799Y017760D01*
X000818Y017735D01*
X000833Y017707D01*
X000844Y017678D01*
X000852Y017647D01*
X000856Y017616D01*
X000856Y017584D01*
X000852Y017553D01*
X000844Y017522D01*
X000833Y017493D01*
X000818Y017465D01*
X000799Y017440D01*
X000778Y017416D01*
X000754Y017396D01*
X000728Y017378D01*
X000700Y017364D01*
X000670Y017354D01*
X000639Y017347D01*
X000608Y017344D01*
X000576Y017345D01*
X000545Y017350D01*
X000515Y017359D01*
X000486Y017371D01*
X000459Y017387D01*
X000433Y017406D01*
X000411Y017428D01*
X000391Y017452D01*
X000374Y017479D01*
X000361Y017508D01*
X000352Y017538D01*
X000346Y017569D01*
X000344Y017600D01*
X007219Y017600D02*
X007221Y017631D01*
X007227Y017662D01*
X007236Y017692D01*
X007249Y017721D01*
X007266Y017748D01*
X007286Y017772D01*
X007308Y017794D01*
X007334Y017813D01*
X007361Y017829D01*
X007390Y017841D01*
X007420Y017850D01*
X007451Y017855D01*
X007483Y017856D01*
X007514Y017853D01*
X007545Y017846D01*
X007575Y017836D01*
X007603Y017822D01*
X007629Y017804D01*
X007653Y017784D01*
X007674Y017760D01*
X007693Y017735D01*
X007708Y017707D01*
X007719Y017678D01*
X007727Y017647D01*
X007731Y017616D01*
X007731Y017584D01*
X007727Y017553D01*
X007719Y017522D01*
X007708Y017493D01*
X007693Y017465D01*
X007674Y017440D01*
X007653Y017416D01*
X007629Y017396D01*
X007603Y017378D01*
X007575Y017364D01*
X007545Y017354D01*
X007514Y017347D01*
X007483Y017344D01*
X007451Y017345D01*
X007420Y017350D01*
X007390Y017359D01*
X007361Y017371D01*
X007334Y017387D01*
X007308Y017406D01*
X007286Y017428D01*
X007266Y017452D01*
X007249Y017479D01*
X007236Y017508D01*
X007227Y017538D01*
X007221Y017569D01*
X007219Y017600D01*
X007219Y000600D02*
X007221Y000631D01*
X007227Y000662D01*
X007236Y000692D01*
X007249Y000721D01*
X007266Y000748D01*
X007286Y000772D01*
X007308Y000794D01*
X007334Y000813D01*
X007361Y000829D01*
X007390Y000841D01*
X007420Y000850D01*
X007451Y000855D01*
X007483Y000856D01*
X007514Y000853D01*
X007545Y000846D01*
X007575Y000836D01*
X007603Y000822D01*
X007629Y000804D01*
X007653Y000784D01*
X007674Y000760D01*
X007693Y000735D01*
X007708Y000707D01*
X007719Y000678D01*
X007727Y000647D01*
X007731Y000616D01*
X007731Y000584D01*
X007727Y000553D01*
X007719Y000522D01*
X007708Y000493D01*
X007693Y000465D01*
X007674Y000440D01*
X007653Y000416D01*
X007629Y000396D01*
X007603Y000378D01*
X007575Y000364D01*
X007545Y000354D01*
X007514Y000347D01*
X007483Y000344D01*
X007451Y000345D01*
X007420Y000350D01*
X007390Y000359D01*
X007361Y000371D01*
X007334Y000387D01*
X007308Y000406D01*
X007286Y000428D01*
X007266Y000452D01*
X007249Y000479D01*
X007236Y000508D01*
X007227Y000538D01*
X007221Y000569D01*
X007219Y000600D01*
D11*
X004401Y008049D02*
X004401Y009151D01*
X003299Y009151D01*
X003299Y008049D01*
X004401Y008049D01*
D12*
X004244Y008994D03*
D13*
X004197Y007960D02*
X004197Y007652D01*
X004135Y007590D01*
X004011Y007590D01*
X003950Y007652D01*
X003950Y007960D01*
X003828Y007899D02*
X003767Y007960D01*
X003643Y007960D01*
X003581Y007899D01*
X003581Y007837D01*
X003828Y007590D01*
X003581Y007590D01*
D14*
X004639Y001975D03*
D15*
X003922Y001745D02*
X003615Y001745D01*
X003461Y001745D02*
X003461Y002205D01*
X003154Y002205D01*
X003308Y001975D02*
X003461Y001975D01*
X003461Y001745D02*
X003154Y001745D01*
X003001Y001745D02*
X003001Y002205D01*
X002771Y002205D01*
X002694Y002129D01*
X002694Y001822D01*
X002771Y001745D01*
X003001Y001745D01*
X003080Y002495D02*
X003080Y002725D01*
X003004Y002802D01*
X002850Y002802D01*
X002773Y002725D01*
X002773Y002495D01*
X002773Y002648D02*
X002620Y002802D01*
X002620Y002955D02*
X002620Y003262D01*
X002620Y003109D02*
X003080Y003109D01*
X002927Y002955D01*
X003080Y002495D02*
X002620Y002495D01*
X002387Y002205D02*
X002540Y002052D01*
X002387Y002205D02*
X002387Y001745D01*
X002540Y001745D02*
X002233Y001745D01*
X001830Y004995D02*
X001370Y004995D01*
X001523Y004995D02*
X001523Y005225D01*
X001600Y005302D01*
X001754Y005302D01*
X001830Y005225D01*
X001830Y004995D01*
X001830Y005455D02*
X001830Y005762D01*
X001754Y005762D01*
X001447Y005455D01*
X001370Y005455D01*
X001370Y005302D02*
X001523Y005148D01*
X002745Y006245D02*
X003205Y006245D01*
X003205Y006475D01*
X003129Y006552D01*
X002975Y006552D01*
X002898Y006475D01*
X002898Y006245D01*
X002898Y006398D02*
X002745Y006552D01*
X002745Y006705D02*
X003052Y007012D01*
X003129Y007012D01*
X003205Y006936D01*
X003205Y006782D01*
X003129Y006705D01*
X002745Y006705D02*
X002745Y007012D01*
X002685Y010370D02*
X002608Y010447D01*
X002608Y010523D01*
X002685Y010600D01*
X002915Y010600D01*
X002915Y010447D01*
X002839Y010370D01*
X002685Y010370D01*
X002915Y010600D02*
X002762Y010754D01*
X002608Y010830D01*
X003069Y010754D02*
X003069Y010600D01*
X003146Y010523D01*
X003376Y010523D01*
X003376Y010370D02*
X003376Y010830D01*
X003146Y010830D01*
X003069Y010754D01*
X003222Y010523D02*
X003069Y010370D01*
X004245Y006936D02*
X004705Y006936D01*
X004475Y006705D01*
X004475Y007012D01*
X004475Y006552D02*
X004398Y006475D01*
X004398Y006245D01*
X004398Y006398D02*
X004245Y006552D01*
X004245Y006245D02*
X004705Y006245D01*
X004705Y006475D01*
X004629Y006552D01*
X004475Y006552D01*
X005012Y005389D02*
X005012Y005082D01*
X005319Y005389D01*
X005395Y005389D01*
X005472Y005312D01*
X005472Y005159D01*
X005395Y005082D01*
X005395Y004928D02*
X005472Y004852D01*
X005472Y004621D01*
X005012Y004621D01*
X005012Y004852D01*
X005088Y004928D01*
X005395Y004928D01*
X005472Y004468D02*
X005472Y004161D01*
X005012Y004161D01*
X005012Y004468D01*
X005242Y004315D02*
X005242Y004161D01*
X005012Y004008D02*
X005012Y003701D01*
X005472Y003701D01*
X005620Y006245D02*
X006080Y006245D01*
X006080Y006475D01*
X006004Y006552D01*
X005850Y006552D01*
X005773Y006475D01*
X005773Y006245D01*
X005773Y006398D02*
X005620Y006552D01*
X005697Y006705D02*
X005620Y006782D01*
X005620Y006936D01*
X005697Y007012D01*
X005773Y007012D01*
X005850Y006936D01*
X005850Y006859D01*
X005850Y006936D02*
X005927Y007012D01*
X006004Y007012D01*
X006080Y006936D01*
X006080Y006782D01*
X006004Y006705D01*
X005876Y009495D02*
X005876Y009955D01*
X005646Y009955D01*
X005569Y009879D01*
X005569Y009725D01*
X005646Y009648D01*
X005876Y009648D01*
X005722Y009648D02*
X005569Y009495D01*
X005415Y009572D02*
X005339Y009495D01*
X005185Y009495D01*
X005108Y009572D01*
X005108Y009725D01*
X005185Y009802D01*
X005262Y009802D01*
X005415Y009725D01*
X005415Y009955D01*
X005108Y009955D01*
X003922Y002205D02*
X003922Y001745D01*
X001455Y014017D02*
X001455Y014171D01*
X001455Y014094D02*
X000995Y014094D01*
X000995Y014017D02*
X000995Y014171D01*
X001072Y014324D02*
X000995Y014401D01*
X000995Y014554D01*
X001072Y014631D01*
X000995Y014785D02*
X000995Y015092D01*
X000995Y014938D02*
X001455Y014938D01*
X001302Y014785D01*
X001379Y014631D02*
X001455Y014554D01*
X001455Y014401D01*
X001379Y014324D01*
X001072Y014324D01*
D16*
X002736Y005755D02*
X002738Y005769D01*
X002744Y005783D01*
X002752Y005795D01*
X002764Y005803D01*
X002778Y005809D01*
X002792Y005811D01*
X002806Y005809D01*
X002820Y005803D01*
X002832Y005795D01*
X002840Y005783D01*
X002846Y005769D01*
X002848Y005755D01*
X002846Y005741D01*
X002840Y005727D01*
X002832Y005715D01*
X002820Y005707D01*
X002806Y005701D01*
X002792Y005699D01*
X002778Y005701D01*
X002764Y005707D01*
X002752Y005715D01*
X002744Y005727D01*
X002738Y005741D01*
X002736Y005755D01*
X002866Y005584D02*
X002866Y005191D01*
X003259Y005584D01*
X002866Y005584D01*
X002866Y005191D02*
X002866Y003616D01*
X004834Y003616D01*
X004834Y005584D01*
X003259Y005584D01*
X003023Y004600D02*
X003025Y004657D01*
X003031Y004714D01*
X003041Y004770D01*
X003054Y004826D01*
X003072Y004880D01*
X003093Y004933D01*
X003118Y004984D01*
X003146Y005034D01*
X003178Y005081D01*
X003212Y005127D01*
X003250Y005169D01*
X003291Y005209D01*
X003334Y005247D01*
X003380Y005281D01*
X003428Y005311D01*
X003478Y005339D01*
X003530Y005363D01*
X003584Y005383D01*
X003638Y005399D01*
X003694Y005412D01*
X003750Y005421D01*
X003807Y005426D01*
X003864Y005427D01*
X003921Y005424D01*
X003978Y005417D01*
X004034Y005406D01*
X004089Y005392D01*
X004143Y005373D01*
X004196Y005351D01*
X004247Y005326D01*
X004296Y005296D01*
X004343Y005264D01*
X004388Y005228D01*
X004430Y005190D01*
X004469Y005148D01*
X004505Y005104D01*
X004539Y005058D01*
X004569Y005009D01*
X004595Y004959D01*
X004618Y004907D01*
X004637Y004853D01*
X004653Y004798D01*
X004665Y004742D01*
X004673Y004685D01*
X004677Y004629D01*
X004677Y004571D01*
X004673Y004515D01*
X004665Y004458D01*
X004653Y004402D01*
X004637Y004347D01*
X004618Y004293D01*
X004595Y004241D01*
X004569Y004191D01*
X004539Y004142D01*
X004505Y004096D01*
X004469Y004052D01*
X004430Y004010D01*
X004388Y003972D01*
X004343Y003936D01*
X004296Y003904D01*
X004247Y003874D01*
X004196Y003849D01*
X004143Y003827D01*
X004089Y003808D01*
X004034Y003794D01*
X003978Y003783D01*
X003921Y003776D01*
X003864Y003773D01*
X003807Y003774D01*
X003750Y003779D01*
X003694Y003788D01*
X003638Y003801D01*
X003584Y003817D01*
X003530Y003837D01*
X003478Y003861D01*
X003428Y003889D01*
X003380Y003919D01*
X003334Y003953D01*
X003291Y003991D01*
X003250Y004031D01*
X003212Y004073D01*
X003178Y004119D01*
X003146Y004166D01*
X003118Y004216D01*
X003093Y004267D01*
X003072Y004320D01*
X003054Y004374D01*
X003041Y004430D01*
X003031Y004486D01*
X003025Y004543D01*
X003023Y004600D01*
D17*
X003415Y016215D02*
X003635Y016215D01*
X003415Y016215D02*
X003415Y016535D01*
X003857Y017364D02*
X004093Y017364D01*
X004093Y017836D02*
X003857Y017836D01*
X004315Y016215D02*
X004535Y016215D01*
X004535Y016535D01*
X002961Y016468D02*
X002961Y016232D01*
X002489Y016232D02*
X002489Y016468D01*
D18*
X002673Y017055D02*
X002648Y017080D01*
X002648Y017105D01*
X002673Y017130D01*
X002698Y017130D01*
X002673Y017130D02*
X002648Y017155D01*
X002648Y017180D01*
X002673Y017205D01*
X002723Y017205D01*
X002748Y017180D01*
X002795Y017180D02*
X002820Y017205D01*
X002870Y017205D01*
X002895Y017180D01*
X002895Y017080D01*
X002870Y017055D01*
X002820Y017055D01*
X002795Y017080D01*
X002748Y017080D02*
X002723Y017055D01*
X002673Y017055D01*
X004805Y017455D02*
X004805Y017505D01*
X004830Y017530D01*
X004880Y017577D02*
X004880Y017677D01*
X004805Y017652D02*
X004955Y017652D01*
X004880Y017577D01*
X004930Y017530D02*
X004955Y017505D01*
X004955Y017455D01*
X004930Y017430D01*
X004830Y017430D01*
X004805Y017455D01*
M02*
